<mxfile host="app.diagrams.net" modified="2023-10-30T17:03:08.035Z" agent="Mozilla/5.0 (Windows NT 10.0; Win64; x64) AppleWebKit/537.36 (KHTML, like Gecko) Chrome/118.0.0.0 Safari/537.36" etag="I2p8gdYFaa9tDjkPslKL" version="22.0.8" type="device" pages="3">
  <diagram name="Tournament" id="GsZ2GcmRUfqDDjbctXDf">
    <mxGraphModel dx="1062" dy="641" grid="1" gridSize="10" guides="1" tooltips="1" connect="1" arrows="1" fold="1" page="1" pageScale="1" pageWidth="1654" pageHeight="1169" math="0" shadow="0">
      <root>
        <mxCell id="0" />
        <mxCell id="1" parent="0" />
        <mxCell id="I6Vx-wKTrIdZp7l3Ch1w-1" value="" style="edgeStyle=orthogonalEdgeStyle;rounded=0;orthogonalLoop=1;jettySize=auto;html=1;" edge="1" parent="1" source="Ewv0v7eT2GeyhWRnm41m-1" target="Ewv0v7eT2GeyhWRnm41m-4">
          <mxGeometry relative="1" as="geometry" />
        </mxCell>
        <mxCell id="Ewv0v7eT2GeyhWRnm41m-1" value="" style="ellipse;html=1;shape=startState;fillColor=#000000;strokeColor=#000000;" parent="1" vertex="1">
          <mxGeometry x="610" y="340" width="30" height="30" as="geometry" />
        </mxCell>
        <mxCell id="Ewv0v7eT2GeyhWRnm41m-24" style="edgeStyle=orthogonalEdgeStyle;rounded=0;orthogonalLoop=1;jettySize=auto;html=1;" parent="1" source="Ewv0v7eT2GeyhWRnm41m-4" target="Ewv0v7eT2GeyhWRnm41m-21" edge="1">
          <mxGeometry relative="1" as="geometry" />
        </mxCell>
        <mxCell id="Ewv0v7eT2GeyhWRnm41m-30" style="edgeStyle=orthogonalEdgeStyle;rounded=0;orthogonalLoop=1;jettySize=auto;html=1;" parent="1" source="Ewv0v7eT2GeyhWRnm41m-4" target="Ewv0v7eT2GeyhWRnm41m-29" edge="1">
          <mxGeometry relative="1" as="geometry" />
        </mxCell>
        <mxCell id="Ewv0v7eT2GeyhWRnm41m-4" value="NEW&amp;nbsp; TOURNAMENT" style="rounded=1;whiteSpace=wrap;html=1;" parent="1" vertex="1">
          <mxGeometry x="565" y="430" width="120" height="60" as="geometry" />
        </mxCell>
        <mxCell id="Ewv0v7eT2GeyhWRnm41m-43" value="today &amp;gt; deadline" style="edgeStyle=orthogonalEdgeStyle;rounded=0;orthogonalLoop=1;jettySize=auto;html=1;" parent="1" source="Ewv0v7eT2GeyhWRnm41m-21" target="Ewv0v7eT2GeyhWRnm41m-23" edge="1">
          <mxGeometry relative="1" as="geometry" />
        </mxCell>
        <mxCell id="Ewv0v7eT2GeyhWRnm41m-21" value="REGISTRATIONS OPEN" style="rounded=1;whiteSpace=wrap;html=1;" parent="1" vertex="1">
          <mxGeometry x="445" y="555" width="120" height="60" as="geometry" />
        </mxCell>
        <mxCell id="Ewv0v7eT2GeyhWRnm41m-45" value="" style="edgeStyle=orthogonalEdgeStyle;rounded=0;orthogonalLoop=1;jettySize=auto;html=1;" parent="1" source="Ewv0v7eT2GeyhWRnm41m-23" target="Ewv0v7eT2GeyhWRnm41m-44" edge="1">
          <mxGeometry relative="1" as="geometry" />
        </mxCell>
        <mxCell id="Ewv0v7eT2GeyhWRnm41m-23" value="REGISTRATIONS CLOSED" style="rounded=1;whiteSpace=wrap;html=1;" parent="1" vertex="1">
          <mxGeometry x="445" y="700" width="120" height="60" as="geometry" />
        </mxCell>
        <mxCell id="Ewv0v7eT2GeyhWRnm41m-33" style="edgeStyle=orthogonalEdgeStyle;rounded=0;orthogonalLoop=1;jettySize=auto;html=1;" parent="1" source="Ewv0v7eT2GeyhWRnm41m-29" target="Ewv0v7eT2GeyhWRnm41m-32" edge="1">
          <mxGeometry relative="1" as="geometry" />
        </mxCell>
        <mxCell id="Ewv0v7eT2GeyhWRnm41m-29" value="TOURNAMENT&lt;br&gt;OPEN" style="rounded=1;whiteSpace=wrap;html=1;" parent="1" vertex="1">
          <mxGeometry x="685" y="555" width="120" height="60" as="geometry" />
        </mxCell>
        <mxCell id="Ewv0v7eT2GeyhWRnm41m-37" value="all battles&lt;br&gt;ended" style="edgeStyle=orthogonalEdgeStyle;rounded=0;orthogonalLoop=1;jettySize=auto;html=1;" parent="1" source="Ewv0v7eT2GeyhWRnm41m-31" target="Ewv0v7eT2GeyhWRnm41m-29" edge="1">
          <mxGeometry relative="1" as="geometry">
            <Array as="points">
              <mxPoint x="640" y="810" />
              <mxPoint x="640" y="585" />
            </Array>
          </mxGeometry>
        </mxCell>
        <mxCell id="Ewv0v7eT2GeyhWRnm41m-31" value="BATTLING" style="rounded=1;whiteSpace=wrap;html=1;" parent="1" vertex="1">
          <mxGeometry x="685" y="780" width="120" height="60" as="geometry" />
        </mxCell>
        <mxCell id="Ewv0v7eT2GeyhWRnm41m-40" value="new battle" style="edgeStyle=orthogonalEdgeStyle;rounded=0;orthogonalLoop=1;jettySize=auto;html=1;" parent="1" source="Ewv0v7eT2GeyhWRnm41m-32" target="Ewv0v7eT2GeyhWRnm41m-31" edge="1">
          <mxGeometry relative="1" as="geometry" />
        </mxCell>
        <mxCell id="Ewv0v7eT2GeyhWRnm41m-42" value="close tournament" style="edgeStyle=orthogonalEdgeStyle;rounded=0;orthogonalLoop=1;jettySize=auto;html=1;" parent="1" source="Ewv0v7eT2GeyhWRnm41m-32" target="ZqKg_O9LmIwTdjiGmLxI-1" edge="1">
          <mxGeometry relative="1" as="geometry">
            <mxPoint x="920" y="700" as="targetPoint" />
          </mxGeometry>
        </mxCell>
        <mxCell id="Ewv0v7eT2GeyhWRnm41m-32" value="" style="rhombus;whiteSpace=wrap;html=1;" parent="1" vertex="1">
          <mxGeometry x="705" y="660" width="80" height="80" as="geometry" />
        </mxCell>
        <mxCell id="Ewv0v7eT2GeyhWRnm41m-35" value="new battle(s)" style="curved=1;endArrow=classic;html=1;rounded=0;" parent="1" source="Ewv0v7eT2GeyhWRnm41m-31" target="Ewv0v7eT2GeyhWRnm41m-31" edge="1">
          <mxGeometry width="50" height="50" relative="1" as="geometry">
            <mxPoint x="710" y="920" as="sourcePoint" />
            <mxPoint x="760" y="870" as="targetPoint" />
            <Array as="points">
              <mxPoint x="760" y="870" />
              <mxPoint x="730" y="880" />
              <mxPoint x="710" y="870" />
            </Array>
          </mxGeometry>
        </mxCell>
        <mxCell id="Ewv0v7eT2GeyhWRnm41m-44" value="" style="ellipse;html=1;shape=endState;fillColor=#000000;strokeColor=#000000;" parent="1" vertex="1">
          <mxGeometry x="490" y="820" width="30" height="30" as="geometry" />
        </mxCell>
        <mxCell id="qK-n20_cfDlesJin2NyK-2" value="Tournament" style="shape=umlFrame;whiteSpace=wrap;html=1;pointerEvents=0;width=120;height=30;" parent="1" vertex="1">
          <mxGeometry x="430" y="300" width="650" height="600" as="geometry" />
        </mxCell>
        <mxCell id="ZqKg_O9LmIwTdjiGmLxI-3" value="" style="edgeStyle=orthogonalEdgeStyle;rounded=0;orthogonalLoop=1;jettySize=auto;html=1;" edge="1" parent="1" source="ZqKg_O9LmIwTdjiGmLxI-1" target="ZqKg_O9LmIwTdjiGmLxI-2">
          <mxGeometry relative="1" as="geometry" />
        </mxCell>
        <mxCell id="ZqKg_O9LmIwTdjiGmLxI-1" value="UPDATING TOURNAMENT RANK" style="rounded=1;whiteSpace=wrap;html=1;" vertex="1" parent="1">
          <mxGeometry x="920" y="670" width="120" height="60" as="geometry" />
        </mxCell>
        <mxCell id="ZqKg_O9LmIwTdjiGmLxI-2" value="" style="ellipse;html=1;shape=endState;fillColor=#000000;strokeColor=#000000;" vertex="1" parent="1">
          <mxGeometry x="965" y="810" width="30" height="30" as="geometry" />
        </mxCell>
      </root>
    </mxGraphModel>
  </diagram>
  <diagram id="IigeOPasQ9OsDa25DfsR" name="Battle">
    <mxGraphModel dx="1436" dy="867" grid="1" gridSize="10" guides="1" tooltips="1" connect="1" arrows="1" fold="1" page="1" pageScale="1" pageWidth="1654" pageHeight="1169" math="0" shadow="0">
      <root>
        <mxCell id="0" />
        <mxCell id="1" parent="0" />
        <mxCell id="SF7A2f98stiHsOm-ZgQx-1" value="" style="edgeStyle=orthogonalEdgeStyle;rounded=0;orthogonalLoop=1;jettySize=auto;html=1;strokeColor=#000000;" edge="1" parent="1" source="w6crWEb7z_BZrqcM5Z6Q-1" target="Fpg_i2PT-tu_QBk5Wptj-1">
          <mxGeometry relative="1" as="geometry" />
        </mxCell>
        <mxCell id="w6crWEb7z_BZrqcM5Z6Q-1" value="" style="ellipse;html=1;shape=startState;fillColor=#000000;strokeColor=#000000;" parent="1" vertex="1">
          <mxGeometry x="610" y="340" width="30" height="30" as="geometry" />
        </mxCell>
        <mxCell id="_2gJZPS9OUwJakQamq4H-3" value="" style="edgeStyle=orthogonalEdgeStyle;rounded=0;orthogonalLoop=1;jettySize=auto;html=1;" edge="1" parent="1" source="Fpg_i2PT-tu_QBk5Wptj-1" target="_2gJZPS9OUwJakQamq4H-1">
          <mxGeometry relative="1" as="geometry" />
        </mxCell>
        <mxCell id="Fpg_i2PT-tu_QBk5Wptj-1" value="REGISTRATIONS OPEN" style="rounded=1;whiteSpace=wrap;html=1;" vertex="1" parent="1">
          <mxGeometry x="660" y="325" width="120" height="60" as="geometry" />
        </mxCell>
        <mxCell id="_2gJZPS9OUwJakQamq4H-4" value="" style="edgeStyle=orthogonalEdgeStyle;rounded=0;orthogonalLoop=1;jettySize=auto;html=1;" edge="1" parent="1" source="_2gJZPS9OUwJakQamq4H-1" target="_2gJZPS9OUwJakQamq4H-2">
          <mxGeometry relative="1" as="geometry" />
        </mxCell>
        <mxCell id="_2gJZPS9OUwJakQamq4H-1" value="REGISTRATION CLOSED" style="rounded=1;whiteSpace=wrap;html=1;" vertex="1" parent="1">
          <mxGeometry x="810" y="325" width="120" height="60" as="geometry" />
        </mxCell>
        <mxCell id="_2gJZPS9OUwJakQamq4H-12" value="" style="edgeStyle=orthogonalEdgeStyle;rounded=0;orthogonalLoop=1;jettySize=auto;html=1;" edge="1" parent="1" source="_2gJZPS9OUwJakQamq4H-2" target="_2gJZPS9OUwJakQamq4H-9">
          <mxGeometry relative="1" as="geometry" />
        </mxCell>
        <mxCell id="_2gJZPS9OUwJakQamq4H-2" value="CODING" style="rounded=1;whiteSpace=wrap;html=1;" vertex="1" parent="1">
          <mxGeometry x="960" y="325" width="120" height="60" as="geometry" />
        </mxCell>
        <mxCell id="_2gJZPS9OUwJakQamq4H-11" value="Manual evaluation is required" style="edgeStyle=orthogonalEdgeStyle;rounded=0;orthogonalLoop=1;jettySize=auto;html=1;" edge="1" parent="1" source="_2gJZPS9OUwJakQamq4H-9" target="_2gJZPS9OUwJakQamq4H-10">
          <mxGeometry relative="1" as="geometry" />
        </mxCell>
        <mxCell id="_2gJZPS9OUwJakQamq4H-15" style="edgeStyle=orthogonalEdgeStyle;rounded=0;orthogonalLoop=1;jettySize=auto;html=1;" edge="1" parent="1" source="_2gJZPS9OUwJakQamq4H-9" target="_2gJZPS9OUwJakQamq4H-13">
          <mxGeometry relative="1" as="geometry">
            <Array as="points">
              <mxPoint x="1290" y="280" />
              <mxPoint x="1765" y="280" />
            </Array>
          </mxGeometry>
        </mxCell>
        <mxCell id="_2gJZPS9OUwJakQamq4H-9" value="" style="rhombus;whiteSpace=wrap;html=1;" vertex="1" parent="1">
          <mxGeometry x="1110" y="315" width="80" height="80" as="geometry" />
        </mxCell>
        <mxCell id="_2gJZPS9OUwJakQamq4H-14" value="" style="edgeStyle=orthogonalEdgeStyle;rounded=0;orthogonalLoop=1;jettySize=auto;html=1;" edge="1" parent="1" source="_2gJZPS9OUwJakQamq4H-10" target="_2gJZPS9OUwJakQamq4H-13">
          <mxGeometry relative="1" as="geometry" />
        </mxCell>
        <mxCell id="_2gJZPS9OUwJakQamq4H-10" value="CONSOLIDATION" style="rounded=1;whiteSpace=wrap;html=1;" vertex="1" parent="1">
          <mxGeometry x="1370" y="325" width="120" height="60" as="geometry" />
        </mxCell>
        <mxCell id="_2gJZPS9OUwJakQamq4H-13" value="" style="ellipse;html=1;shape=endState;fillColor=#000000;strokeColor=#000000;" vertex="1" parent="1">
          <mxGeometry x="1530" y="340" width="30" height="30" as="geometry" />
        </mxCell>
        <mxCell id="_2gJZPS9OUwJakQamq4H-20" value="Battle" style="shape=umlFrame;whiteSpace=wrap;html=1;pointerEvents=0;width=70;height=30;" vertex="1" parent="1">
          <mxGeometry x="590" y="240" width="1000" height="200" as="geometry" />
        </mxCell>
      </root>
    </mxGraphModel>
  </diagram>
  <diagram id="5uXHhe3qlCKk5Fy5Bx8a" name="Score">
    <mxGraphModel dx="1221" dy="737" grid="1" gridSize="10" guides="1" tooltips="1" connect="1" arrows="1" fold="1" page="1" pageScale="1" pageWidth="1654" pageHeight="1169" math="0" shadow="0">
      <root>
        <mxCell id="0" />
        <mxCell id="1" parent="0" />
        <mxCell id="m7MPOJmLYx_UdhEK3sSW-1" value="" style="edgeStyle=orthogonalEdgeStyle;rounded=0;orthogonalLoop=1;jettySize=auto;html=1;strokeColor=#000000;" edge="1" parent="1" source="m7MPOJmLYx_UdhEK3sSW-2" target="m7MPOJmLYx_UdhEK3sSW-4">
          <mxGeometry relative="1" as="geometry" />
        </mxCell>
        <mxCell id="m7MPOJmLYx_UdhEK3sSW-2" value="" style="ellipse;html=1;shape=startState;fillColor=#000000;strokeColor=#000000;" vertex="1" parent="1">
          <mxGeometry x="200" y="420" width="30" height="30" as="geometry" />
        </mxCell>
        <mxCell id="m7MPOJmLYx_UdhEK3sSW-3" value="" style="edgeStyle=orthogonalEdgeStyle;rounded=0;orthogonalLoop=1;jettySize=auto;html=1;" edge="1" parent="1" source="m7MPOJmLYx_UdhEK3sSW-4" target="m7MPOJmLYx_UdhEK3sSW-6">
          <mxGeometry relative="1" as="geometry" />
        </mxCell>
        <mxCell id="m7MPOJmLYx_UdhEK3sSW-4" value="FUNCTIONAL ASPECTS&lt;br&gt;(&lt;b&gt;+&lt;/b&gt;)" style="rounded=1;whiteSpace=wrap;html=1;" vertex="1" parent="1">
          <mxGeometry x="250" y="405" width="120" height="60" as="geometry" />
        </mxCell>
        <mxCell id="m7MPOJmLYx_UdhEK3sSW-5" value="" style="edgeStyle=orthogonalEdgeStyle;rounded=0;orthogonalLoop=1;jettySize=auto;html=1;" edge="1" parent="1" source="m7MPOJmLYx_UdhEK3sSW-6" target="m7MPOJmLYx_UdhEK3sSW-8">
          <mxGeometry relative="1" as="geometry" />
        </mxCell>
        <mxCell id="m7MPOJmLYx_UdhEK3sSW-6" value="TIMELINESS&lt;br&gt;(&lt;b&gt;-&lt;/b&gt;)" style="rounded=1;whiteSpace=wrap;html=1;" vertex="1" parent="1">
          <mxGeometry x="400" y="405" width="120" height="60" as="geometry" />
        </mxCell>
        <mxCell id="m7MPOJmLYx_UdhEK3sSW-7" value="" style="edgeStyle=orthogonalEdgeStyle;rounded=0;orthogonalLoop=1;jettySize=auto;html=1;" edge="1" parent="1" source="m7MPOJmLYx_UdhEK3sSW-8" target="m7MPOJmLYx_UdhEK3sSW-11">
          <mxGeometry relative="1" as="geometry" />
        </mxCell>
        <mxCell id="m7MPOJmLYx_UdhEK3sSW-8" value="QUALITY LEVEL&lt;br&gt;(&lt;b&gt;+&lt;/b&gt;)" style="rounded=1;whiteSpace=wrap;html=1;" vertex="1" parent="1">
          <mxGeometry x="550" y="405" width="120" height="60" as="geometry" />
        </mxCell>
        <mxCell id="m7MPOJmLYx_UdhEK3sSW-9" value="Manual evaluation is required" style="edgeStyle=orthogonalEdgeStyle;rounded=0;orthogonalLoop=1;jettySize=auto;html=1;" edge="1" parent="1" source="m7MPOJmLYx_UdhEK3sSW-11" target="m7MPOJmLYx_UdhEK3sSW-13">
          <mxGeometry relative="1" as="geometry" />
        </mxCell>
        <mxCell id="m7MPOJmLYx_UdhEK3sSW-10" style="edgeStyle=orthogonalEdgeStyle;rounded=0;orthogonalLoop=1;jettySize=auto;html=1;" edge="1" parent="1" source="m7MPOJmLYx_UdhEK3sSW-11" target="m7MPOJmLYx_UdhEK3sSW-14">
          <mxGeometry relative="1" as="geometry">
            <Array as="points">
              <mxPoint x="880" y="360" />
              <mxPoint x="1355" y="360" />
            </Array>
          </mxGeometry>
        </mxCell>
        <mxCell id="m7MPOJmLYx_UdhEK3sSW-11" value="" style="rhombus;whiteSpace=wrap;html=1;" vertex="1" parent="1">
          <mxGeometry x="700" y="395" width="80" height="80" as="geometry" />
        </mxCell>
        <mxCell id="m7MPOJmLYx_UdhEK3sSW-12" value="" style="edgeStyle=orthogonalEdgeStyle;rounded=0;orthogonalLoop=1;jettySize=auto;html=1;" edge="1" parent="1" source="m7MPOJmLYx_UdhEK3sSW-13" target="m7MPOJmLYx_UdhEK3sSW-14">
          <mxGeometry relative="1" as="geometry" />
        </mxCell>
        <mxCell id="m7MPOJmLYx_UdhEK3sSW-13" value="PERSONAL SCORE&lt;br&gt;(&lt;b&gt;+&lt;/b&gt;)" style="rounded=1;whiteSpace=wrap;html=1;" vertex="1" parent="1">
          <mxGeometry x="960" y="405" width="120" height="60" as="geometry" />
        </mxCell>
        <mxCell id="m7MPOJmLYx_UdhEK3sSW-14" value="" style="ellipse;html=1;shape=endState;fillColor=#000000;strokeColor=#000000;" vertex="1" parent="1">
          <mxGeometry x="1120" y="420" width="30" height="30" as="geometry" />
        </mxCell>
        <mxCell id="m7MPOJmLYx_UdhEK3sSW-15" value="Score evaluation" style="shape=umlFrame;whiteSpace=wrap;html=1;pointerEvents=0;width=140;height=30;" vertex="1" parent="1">
          <mxGeometry x="180" y="320" width="1000" height="200" as="geometry" />
        </mxCell>
      </root>
    </mxGraphModel>
  </diagram>
</mxfile>
